<?xml version="1.0" encoding="utf-8"?>
<!-- Generator: Adobe Illustrator 28.0.0, SVG Export Plug-In . SVG Version: 6.00 Build 0)  -->
<svg version="1.1" id="Layer_1" xmlns="http://www.w3.org/2000/svg" xmlns:xlink="http://www.w3.org/1999/xlink" x="0px" y="0px"
	 viewBox="0 0 560 284.52" style="enable-background:new 0 0 560 284.52;" xml:space="preserve">
<style type="text/css">
	.st0{fill-rule:evenodd;clip-rule:evenodd;}
</style>
<path class="st0" d="M560,272.64l-538.9,4.91c-6.93-0.32-11.37-6.73-11.02-12.4l2.94-48.11V177.9c0-17.44,3.33-22.23,6.7-27.08
	c1.59-2.29,3.19-4.59,4.21-9.2l5.63-25.37c1.21-5.44,5.99-10.59,11.8-12.73l14.99-5.54c5.59-2.06,10.47-5.95,13.54-10.54l36.9-54.97
	c4.7-7,13.57-12.24,22.56-13.89c16-2.95,53.06-11.03,99.96-10.41c16.53,0.22,34.28,1.52,52.76,4.5
	c-17.49-0.12-34.99,0.47-52.44,1.68c-33.03,2.29-65.91,6.77-98.28,12.73c-6.33,1.16-12.76,4.88-16.07,9.82l-36.9,54.97
	c-4.1,6.11-10.76,11.39-18.21,14.14l-15.01,5.53c-2.8,1.03-5.33,3.76-5.91,6.39l-5.63,25.37c-1.35,6.11-3.43,9.09-5.48,12.05
	c-2.63,3.79-5.23,7.53-5.23,22.56v39.13l-2.98,48.55c-0.06,1.05,1.18,3.25,3.53,3.26L560,272.64L560,272.64z M71.48,80.3
	c-6.29,0.09-8.81-1.65-11.14-4.12c-2.99-2.02-1.31-3.26-7.62-2.2l-31.77,3.13c-4.98,0.85-11.3,1.72-13.65,6.81L1.37,96.8
	c-7.64,16.57,18.81,11.24,25.15,9.99c-5.61-0.81-18.88,0.38-15.27-7.47l4.86-10.54c1.6-3.47,6.49-4.28,7.92-4.52l30.98-5.23
	c2.76-0.47,3.96,0.34,5.3,1.25C62.92,82.05,65.7,81.89,71.48,80.3L71.48,80.3z M185.47,235.53l-48.99-3.52
	c-4.02-0.29-17.51-7.15-9.72-13.64l24.77-22.15c7.36-6.13,18.35-10.36,27.34-10.89l65.82-3.91l-64.77-2.13
	c-11.35-0.37-23.74,2.2-32.98,9.89l-26.25,21.86c-16.66,13.87,1.13,29.92,16.71,28.59L185.47,235.53L185.47,235.53z M68.57,239.33
	c-8.18-4.13-13.83-8.12-21.75-13.87c5.83,6.51,11.4,13.18,17.93,18.87c7.31,6.36,18.84,8.89,29,8.59
	c55.57-1.62,394.27-5.54,449.84-7.16c-55.67-1.26-394.47-0.59-450.15-1.51C85.79,244.13,75.34,242.75,68.57,239.33L68.57,239.33z
	 M396.68,89.07c-24.91-4.14-188.72-4.58-214.63-4.54c-39.02,0.06-73.72,3.35-87.63,5.33c8.21-5.77,24.29-42.87,33.65-46.06
	c48.96-16.66,96.9-17.87,148.33-20.07c-52.24-10.23-134.03,5.66-154.81,13.01c-8.26,2.92-38.51,60.96-48.09,65.14
	c37.16-5.79,72.61-9.45,108.55-11.15C207.75,89.5,369.68,88.34,396.68,89.07L396.68,89.07z M80.37,148.26
	c23.03,6.55,40.41,16.04,63.67,19.26c-20.53-7.69-37.77-18.4-60.13-24.76c-18.31-5.2-34.1-5.37-38.84,7.55
	c-6.75,18.4,0.28,32.54,21.27,38.51c17.37,4.94,41.44,3.2,58.64-1.16c-20.61,0.12-27.58,4.14-56.33-4.03
	c-15.75-4.48-19.26-16.89-14.2-30.67C56.86,146.39,67.31,144.55,80.37,148.26z" style="fill: white;"/>
</svg>
